<svg xmlns="http://www.w3.org/2000/svg" width="20" height="20" fill="none" viewBox="0 0 20 20"><path stroke="#e4dfd3" d="M2.695.5h14.61c1.212 0 2.195.983 2.195 2.195v14.61a2.196 2.196 0 0 1-2.195 2.195h-3.786l.01-6.147h1.969a.94.94 0 0 0 .932-.828l.273-2.303a.94.94 0 0 0-.932-1.049h-2.254V7.746c0-.415.064-.625.16-.74.081-.096.277-.23.837-.23h1.16c.518 0 .937-.42.937-.938V3.896a.94.94 0 0 0-.938-.938h-1.892c-1.252 0-2.36.384-3.155 1.17-.797.788-1.226 1.924-1.226 3.32v1.726H8.046c-.518-.001-.939.422-.937.941l.01 2.304a.937.937 0 0 0 .938.934h1.356L9.4 19.5H2.695A2.195 2.195 0 0 1 .5 17.305V2.695c0-1.212.983-2.195 2.195-2.195Z"/></svg>