<svg xmlns="http://www.w3.org/2000/svg" width="100" height="85" fill="none" viewBox="0 0 100 85"><path stroke="#344f10" d="m75.876 13.91-5.192 3.708C56.675-.956 49.088-10.867 24.901 22.252l16.992 10.196c2.415-7.972 4.447-12.034 9.44-18.538l5.663 11.123-5.663 4.17C58.183 29.854 61.853 29.938 67.853 29.205c4.066-4.831 5.942-8.039 8.023-15.294ZM63.93 75.827l-.786-6.333c22.999-3.472 35.324-5.424 17.738-42.476L63.826 37.106c5.856 5.922 8.458 9.645 11.796 17.134l-12.474-.317-.968-6.969c-3.834 5.717-5.656 8.904-7.87 14.53 2.31 5.878 4.234 9.057 9.62 14.343ZM11.3 34.3l5.917 2.384C9.103 58.489 4.833 70.219 45.753 72.798l-.55-19.814c-8.017 2.252-12.533 2.723-20.699 2.013l6.325-10.76 6.562 2.532c-3.14-6.126-5.042-9.266-8.887-13.93-6.259-.83-9.971-.687-17.204 1.46Z"/></svg>