<svg xmlns="http://www.w3.org/2000/svg" width="80" height="75" fill="none" viewBox="0 0 80 75"><path stroke="#344f10" d="m44.117 74.102-2.927-5.44M15.14 20.237l7.317 13.602m0 0 3.358-11.426M22.457 33.84l-11.385-3.265m11.385 3.265 6.44 11.97m0 0 4.544-17.411m-4.545 17.41-15.282-4.352m15.282 4.353 7.61 14.146m0 0 6.085-22.852m-6.085 22.852L15.14 53.971m21.367 5.985 4.684 8.705m0 0C63.289 39.407 66.94 23.663 5.48.651"/><path stroke="#344f10" d="M5.466.103c-13.849 66.095 2.3 69.645 35.6 68.559m13.726-21.764 2.034-3.18M68.01 26.222 61.401 36.56m0 0h8.642m-8.642 0L58.86 28.4m2.542 8.16-4.575 7.157m0 0H68.01m-11.184 0-5.592 10.254L64.45 55.06"/><path stroke="#344f10" d="M43.608 65.397c30.861-.43 42.561-6.994 32.21-53.235"/><path stroke="#344f10" d="M76.144 12.62c-11.16 2.584-16.958 4.8-24.402 13.603"/></svg>