<svg width="100" height="85" viewBox="0 0 100 85" fill="none" xmlns="http://www.w3.org/2000/svg">
<path d="M75.8761 13.9105L70.6842 17.618C56.6754 -0.955951 49.0881 -10.8674 24.9009 22.2523L41.8926 32.4478C44.3077 24.476 46.3404 20.4145 51.3325 13.9105L56.9964 25.0329L51.3325 29.2038C58.1838 29.8524 61.8531 29.9373 67.8522 29.2038C71.9187 24.3726 73.7952 21.165 75.8761 13.9105Z" stroke="#344F10"/>
<path d="M63.9291 75.8271L63.1441 69.4943C86.1426 66.0215 98.4684 64.0699 80.8822 27.0177L63.8264 37.1057C69.6823 43.0277 72.2836 46.7505 75.6217 54.2397L63.148 53.9227L62.1804 46.954C58.3464 52.6711 56.5237 55.858 54.3104 61.484C56.6193 67.3622 58.5445 70.5408 63.9291 75.8271Z" stroke="#344F10"/>
<path d="M11.3002 34.2998L17.2174 36.6835C9.10271 58.4891 4.83272 70.2194 45.7532 72.7978L45.2031 52.9842C37.1864 55.2363 32.6705 55.7073 24.5043 54.9967L30.8294 44.2368L37.391 46.7691C34.2517 40.6427 32.3492 37.5028 28.5037 32.8386C22.245 32.0086 18.5326 32.1518 11.3002 34.2998Z" stroke="#344F10"/>
</svg>
