<svg width="80" height="75" viewBox="0 0 80 75" fill="none" xmlns="http://www.w3.org/2000/svg">
<path d="M44.1165 74.1023L41.1895 68.6614M15.1393 20.2376L22.4568 33.8398M22.4568 33.8398L25.8151 22.414M22.4568 33.8398L11.0723 30.5753M22.4568 33.8398L28.8962 45.8097M28.8962 45.8097L33.4407 28.3989M28.8962 45.8097L13.6142 41.457M28.8962 45.8097L36.5064 59.956M36.5064 59.956L42.5914 37.1043M36.5064 59.956L15.1393 53.9711M36.5064 59.956L41.1895 68.6614M41.1895 68.6614C63.2885 39.4067 66.9411 23.6632 5.48022 0.650452" stroke="#344F10"/>
<path d="M5.46631 0.102539C-8.38296 66.1983 7.76651 69.7478 41.0665 68.6617M54.7924 46.8982L56.8258 43.7174M68.01 26.2228L61.4012 36.5605M61.4012 36.5605H70.0435M61.4012 36.5605L58.8593 28.3992M61.4012 36.5605L56.8258 43.7174M56.8258 43.7174H68.01M56.8258 43.7174L51.2337 53.9713L64.4514 55.0595" stroke="#344F10"/>
<path d="M43.6082 65.3969C74.469 64.9668 86.169 58.4028 75.8171 12.1616" stroke="#344F10"/>
<path d="M76.144 12.6207C64.9845 15.2042 59.1859 17.4203 51.7421 26.2229" stroke="#344F10"/>
</svg>
